<svg class="icon icon-svg svg-icon svg font-awesome font-awesome-icon icon-font-awesome" width="1792" height="1792" viewBox="0 0 1792 1792" xmlns="http://www.w3.org/2000/svg">
	<g>
		<path d="M896,165.5c237.92,0,266.09.91,360.06,5.19,86.87,4,134.05,18.48,165.45,30.68,41.6,16.17,71.27,35.48,102.45,66.66s50.5,60.85,66.66,102.45c12.2,31.4,26.72,78.58,30.68,165.46,4.29,94,5.19,122.14,5.19,360.06s-0.91,266.1-5.19,360.06c-4,86.88-18.48,134.06-30.68,165.45-16.16,41.59-35.47,71.27-66.66,102.45s-60.86,50.49-102.45,66.66c-31.4,12.2-78.58,26.72-165.45,30.68-93.95,4.29-122.12,5.19-360.06,5.19s-266.11-.9-360.06-5.19c-86.87-4-134.05-18.48-165.46-30.68C328.9,1574.46,299.21,1555.15,268,1524s-50.48-60.87-66.65-102.45c-12.2-31.4-26.72-78.58-30.68-165.45-4.29-94-5.19-122.14-5.19-360.06s0.91-266.1,5.19-360.06c4-86.87,18.48-134.05,30.68-165.46C217.54,328.88,236.85,299.21,268,268s60.87-50.49,102.45-66.66c31.4-12.2,78.59-26.72,165.46-30.68,94-4.29,122.14-5.19,360.06-5.19M896,4.95c-242,0-272.34,1-367.38,5.36C433.78,14.64,369,29.71,312.33,51.73,253.74,74.5,204,105,154.51,154.5s-80,99.23-102.77,157.82c-22,56.69-37.1,121.45-41.42,216.3C6,623.67,5,654,5,896s1,272.34,5.36,367.37c4.33,94.85,19.39,159.62,41.42,216.3C74.5,1538.26,105,1588,154.51,1637.5s99.22,80,157.82,102.77c56.67,22,121.45,37.08,216.29,41.42,95,4.33,125.38,5.36,367.38,5.36s272.34-1,367.37-5.36c94.85-4.33,159.62-19.39,216.29-41.42,58.6-22.77,108.28-53.24,157.83-102.77s80-99.23,102.77-157.83c22-56.68,37.09-121.45,41.42-216.3C1786,1168.33,1787,1138,1787,896s-1-272.33-5.36-367.37c-4.33-94.85-19.39-159.61-41.42-216.3C1717.5,253.74,1687,204,1637.5,154.5s-99.23-80-157.83-102.77c-56.68-22-121.45-37.09-216.29-41.42C1168.34,6,1138,4.95,896,4.95""/>
		<path d="M896,438.44C643.3,438.44,438.44,643.29,438.44,896S643.3,1353.55,896,1353.55,1353.56,1148.7,1353.56,896,1148.7,438.44,896,438.44M896,1193c-164,0-297-133-297-297S732,599,896,599s297,133,297,297-133,297-297,297""/>
		<path d="M1478.57,420.36a106.93,106.93,0,1,1-106.93-106.93,106.92,106.92,0,0,1,106.93,106.93""/>
	</g>
</svg>