<svg class="icon icon-svg svg-icon svg font-awesome font-awesome-icon icon-font-awesome" xmlns="http://www.w3.org/2000/svg" xmlns:xlink="http://www.w3.org/1999/xlink" width="416" height="448" viewBox="0 0 416 448"><path d="M212 32q33.5-0.25 60.125 17.125t40.875 48.125q6.75 14.5 6.75 44.75 0 11.75-2.25 47.75 3.5 1.75 7 1.75 4.5 0 12.75-3.375t12.75-3.375q7.25 0 14 4.5t6.75 11.5q0 8-7.875 13.5t-17.25 7.875-17.25 7.25-7.875 11.875q0 3.75 3 10.75 9.25 20.5 25.625 37.5t36.125 25.25q7 3 20 5.75 7 1.5 7 8.75 0 17.5-54.75 25.75-1.75 2.75-2.75 9.75t-3.5 11.625-8.25 4.625q-5 0-15.5-1.625t-16-1.625q-9.25 0-15.5 1.25-8 1.25-15.75 5.625t-14.5 9.5-14.5 10.125-19 8.375-24.75 3.375q-13 0-24.125-3.375t-18.75-8.375-14.375-10.125-14.5-9.5-15.5-5.625q-6.5-1.25-15.75-1.25-6 0-16.375 1.875t-14.625 1.875q-6.25 0-8.75-4.625t-3.5-11.875-2.75-10q-54.75-8.25-54.75-25.75 0-7.25 7-8.75 13-2.75 20-5.75 19.5-8 36.125-25.25t25.625-37.5q3-7 3-10.75 0-7-7.875-11.875t-17.375-7.375-17.375-7.875-7.875-13.125q0-6.75 6.5-11.375t13.75-4.625q3.75 0 12 3.25t13.25 3.25q4.5 0 8-1.75-2.25-35.5-2.25-47.5 0-30.5 6.75-45 16-34.25 43-49.5t66-15.75z"></path></svg>
