<svg class="icon icon-svg svg-icon svg font-awesome font-awesome-icon icon-font-awesome" xmlns="http://www.w3.org/2000/svg" xmlns:xlink="http://www.w3.org/1999/xlink" width="384" height="448" viewBox="0 0 384 448"><path d="M320 287q0-5.5-5.5-6.75-16.75-3.5-29.5-14.5t-20-27.25q-1.75-3.5-1.75-6.25 0-3.75 4.875-6.5t10.625-4.25 10.625-5.125 4.875-9.125q0-4.75-4.625-7.875t-9.625-3.125q-2.75 0-7.75 2t-8 2q-1 0-3-0.5 1.25-15.75 1.25-28.75 0-19.5-4.25-28.5-9-19.5-25.625-30.375t-38.125-10.875q-49.5 0-68.75 41.25-4.5 9.5-4.5 28.75 0 9.5 1.5 28.5-2.5 0.5-3.75 0.5-2.75 0-7.875-2t-7.625-2q-5 0-9.375 3.125t-4.375 8.125q0 5.25 4.875 8.875t10.625 5.125 10.625 4.25 4.875 6.5q0 2.75-1.75 6.25-16 34.5-49.5 41.75-5.5 1.25-5.5 6.75 0 11.75 34.5 17.25 0.5 1.25 1.5 6.5t2.75 7.625 5.75 2.375q3.25 0 9.625-1.25t9.625-1.25q8.75 0 16.875 3.75t13.625 8.125 14.375 8.125 19.125 3.75q10.75 0 19.75-3.75t14.375-8.125 13.5-8.125 16.875-3.75q3.25 0 9.75 1.125t9.75 1.125q3.75 0 5.625-2.375t2.875-7.75 1.25-6.125q34.5-5.5 34.5-17.25zM384 104v240q0 29.75-21.125 50.875t-50.875 21.125h-240q-29.75 0-50.875-21.125t-21.125-50.875v-240q0-29.75 21.125-50.875t50.875-21.125h240q29.75 0 50.875 21.125t21.125 50.875z"></path></svg>
