<svg class="icon icon-svg svg-icon svg font-awesome font-awesome-icon icon-font-awesome"  xmlns="http://www.w3.org/2000/svg" xmlns:xlink="http://www.w3.org/1999/xlink" width="384" height="448" viewBox="0 0 384 448"><path d="M319.75 287q0-5.5-5.5-6.75-16.75-3.75-29.5-14.75t-20-27q-1.75-4.75-1.75-6.25 0-3.75 4.875-6.5t10.75-4.25 10.75-5.125 4.875-9.125q0-4.75-4.625-7.875t-9.625-3.125q-3 0-8 2t-7.75 2q-1 0-3-0.5 1.25-23.75 1.25-28.5 0-19.75-4.25-28.5-9-19.5-25.75-30.375t-38-10.875q-49.75 0-68.75 41.25-4.25 8.75-4.25 28.5 0 4.75 1.25 28.5-1 0.5-3.5 0.5-3 0-8-1.875t-7.5-1.875q-5.25 0-9.625 3t-4.375 8q0 5.25 4.875 8.875t10.75 5.125 10.75 4.25 4.875 6.5q0 1.5-1.75 6.25-16 34.5-49.5 41.75-5.5 1.25-5.5 6.75 0 11.5 34.25 17 0.5 1.25 1.5 6.5t2.875 7.625 5.875 2.375q3 0 9.375-1.125t9.875-1.125q8.75 0 16.75 3.75t13.5 8.125 14.375 8.125 19.125 3.75q10.75 0 19.75-3.75t14.375-8.125 13.375-8.125 16.75-3.75q3.5 0 9.875 1t9.625 1q4 0 5.75-2.5t2.75-7.5 1.5-6.25q34.25-5.5 34.25-17zM384 224q0 52.25-25.75 96.375t-69.875 69.875-96.375 25.75-96.375-25.75-69.875-69.875-25.75-96.375 25.75-96.375 69.875-69.875 96.375-25.75 96.375 25.75 69.875 69.875 25.75 96.375z"></path></svg>
