<svg class="icon icon-svg svg-icon svg font-awesome font-awesome-icon icon-font-awesome" width="1792" height="1792" viewBox="0 0 1792 1792" xmlns="http://www.w3.org/2000/svg"><path d="M1771.37,538.83s-17.46-123.1-71-177.31c-67.93-71.15-144.07-71.5-179-75.67-250-18.07-625-18.07-625-18.07h-0.78s-375,0-625,18.07c-34.92,4.16-111,4.52-179,75.67-53.56,54.21-71,177.31-71,177.31S2.8,683.39,2.8,828V963.48C2.8,1108,20.66,1252.6,20.66,1252.6s17.43,123.11,71,177.32c68,71.15,157.22,68.9,197,76.36C431.54,1520,896,1524.22,896,1524.22s375.37-.56,625.36-18.63c34.92-4.17,111.06-4.52,179-75.67,53.56-54.21,71-177.32,71-177.32S1789.2,1108,1789.2,963.48V828C1789.21,683.39,1771.37,538.83,1771.37,538.83ZM711.57,1127.72l-0.08-501.93,482.7,251.84Z" /></svg>